# xmcd CD database file
#
# Track frame offsets:
#	150
#	23602
#	36181
#	53570
#	62572
#	81319
#	103575
#	134538
#	141276
#	155255
#	159198
#	163364
#	169008
#	180943
#	202220
#	209921
#	220066
#
# Disc length: 3178 seconds
#
# Revision: 0
# Processed by: cddbd v1.5.2PL0 Copyright (c) Steve Scherf et al.
# Submitted via: CDex 1.51
#
DISCID=ef0c6811
DTITLE=Louis Sclavis and le Quatour Habanera - L'engrenage
DYEAR=2005
DGENRE=Jazz
TTITLE0=Engrenage (Alexandros Markeas)
TTITLE1=Attente (Louis Scravis)
TTITLE2=Danse (Louis Scravis)
TTITLE3=Recontre (Joel Merah)
TTITLE4=Petites flammes (Alain Berlaud)
TTITLE5=Nebuleuses (Lionel Bord)
TTITLE6=Durch (Fabien Levy)
TTITLE7=Separation (Louis Scravis)
TTITLE8=Golden Drops-1 (Yassen Vodenitcharov)
TTITLE9=Golden Drops-2 (Yassen Vodenitcharov)
TTITLE10=Golden Drops-5 (Yassen Vodenitcharov)
TTITLE11=Golden Drops-7 (Yassen Vodenitcharov)
TTITLE12=Golden Drops-version avec improvisateur (Yassen Vodenitcharov)
TTITLE13=Vent d'Est (Louis Scravis/Gyorgy Ligeti)
TTITLE14=Fleur d'Eau(Louis Scravis/Habnera)
TTITLE15=L'enfance ethnique (Louis Scravis)
TTITLE16=Epilogue (Alexandros Markeas)
EXTD=YEAR: 2005
EXTT0=
EXTT1=
EXTT2=
EXTT3=
EXTT4=
EXTT5=
EXTT6=
EXTT7=
EXTT8=
EXTT9=
EXTT10=
EXTT11=
EXTT12=
EXTT13=
EXTT14=
EXTT15=
EXTT16=
PLAYORDER=
